<?xml version="1.0" encoding="UTF-8" standalone="no"?>
<!-- Created with Inkscape (http://www.inkscape.org/) -->
<svg
   xmlns:dc="http://purl.org/dc/elements/1.1/"
   xmlns:cc="http://creativecommons.org/ns#"
   xmlns:rdf="http://www.w3.org/1999/02/22-rdf-syntax-ns#"
   xmlns:svg="http://www.w3.org/2000/svg"
   xmlns="http://www.w3.org/2000/svg"
   xmlns:sodipodi="http://sodipodi.sourceforge.net/DTD/sodipodi-0.dtd"
   xmlns:inkscape="http://www.inkscape.org/namespaces/inkscape"
   id="svg2"
   sodipodi:version="0.32"
   inkscape:version="0.46"
   width="552"
   height="197"
   version="1.0"
   sodipodi:docname="Lafarge.svg"
   inkscape:output_extension="org.inkscape.output.svg.inkscape">
  <metadata
     id="metadata7">
    <rdf:RDF>
      <cc:Work
         rdf:about="">
        <dc:format>image/svg+xml</dc:format>
        <dc:type
           rdf:resource="http://purl.org/dc/dcmitype/StillImage" />
      </cc:Work>
    </rdf:RDF>
  </metadata>
  <defs
     id="defs5">
    <inkscape:perspective
       sodipodi:type="inkscape:persp3d"
       inkscape:vp_x="0 : 526.18109 : 1"
       inkscape:vp_y="0 : 1000 : 0"
       inkscape:vp_z="744.09448 : 526.18109 : 1"
       inkscape:persp3d-origin="372.04724 : 350.78739 : 1"
       id="perspective9" />
  </defs>
  <sodipodi:namedview
     inkscape:window-height="1000"
     inkscape:window-width="1680"
     inkscape:pageshadow="2"
     inkscape:pageopacity="0.0"
     guidetolerance="10.0"
     gridtolerance="10.0"
     objecttolerance="10.0"
     borderopacity="1.0"
     bordercolor="#666666"
     pagecolor="#ffffff"
     id="base"
     showgrid="false"
     inkscape:zoom="1.3937177"
     inkscape:cx="285.97791"
     inkscape:cy="150.92536"
     inkscape:window-x="-8"
     inkscape:window-y="-8"
     inkscape:current-layer="layer1" />
  <g
     inkscape:groupmode="layer"
     id="layer1" />
  <g
     inkscape:groupmode="layer"
     id="layer2">
    <path
       style="fill:#178a34;fill-opacity:1"
       d="M 1.1947589,188.30344 C 1.1916289,187.88664 19.035339,146.93313 40.847474,97.29563 L 80.505874,7.0456301 L 115.85317,7.0456301 C 135.29418,7.0456301 151.17421,7.3831301 151.14213,7.7956301 C 151.11004,8.2081301 145.11937,22.04563 137.82953,38.54563 L 124.57528,68.54563 L 111.38787,68.82466 L 98.200464,69.10368 L 98.200464,98.89524 L 98.200464,128.68679 L 90.794854,145.36621 L 83.389254,162.04563 L 108.23164,162.04563 L 133.07402,162.04563 L 127.27547,175.29563 L 121.47693,188.54563 L 61.338694,188.80344 C 28.262659,188.94523 1.1978889,188.72023 1.1947589,188.30344 z"
       id="path2408"
       sodipodi:nodetypes="ccccscccccccccccccc" />
    <path
       style="fill:#000000"
       d="M 439.0545,121.77506 C 427.3904,118.0756 420.65386,109.57821 420.61188,98.511791 C 420.57328,88.334901 426.3118,80.953741 437.58992,76.673841 C 443.91409,74.273891 460.35438,73.168981 470.08992,74.489591 L 476.08992,75.303491 L 476.38544,82.045111 L 476.68096,88.786741 L 473.88544,87.651361 C 469.33752,85.804271 454.64064,86.067521 450.92822,88.062571 C 446.01199,90.704541 443.58992,94.443071 443.58992,99.389431 C 443.58992,107.9143 447.50903,111.80162 456.10362,111.80162 C 460.70566,111.80162 460.71589,111.79389 460.40328,108.55162 C 460.16311,106.06067 459.56442,105.22699 457.83992,104.98207 C 455.89324,104.7056 455.58992,104.06526 455.58992,100.23207 L 455.58992,95.801621 L 467.58992,95.801621 L 479.58992,95.801621 L 479.58992,108.69897 L 479.58992,121.59631 L 473.25801,122.69897 C 463.09576,124.46864 446.09967,124.00954 439.0545,121.77506 z M 101.58992,98.814421 L 101.58992,74.801621 L 113.08992,74.801621 L 124.58992,74.801621 L 124.58992,91.801621 L 124.58992,108.80162 L 137.0422,108.80162 L 149.49449,108.80162 L 149.7922,115.01534 L 150.08992,121.22906 L 159.73268,98.265341 L 169.37543,75.301621 L 185.12208,75.301621 L 200.86872,75.301621 L 210.72932,98.273241 C 216.15265,110.90762 220.58992,121.6094 220.58992,122.05497 C 220.58992,122.50054 215.32395,122.73831 208.88776,122.58336 L 197.1856,122.30162 L 195.71219,117.55162 L 194.23878,112.80162 L 184.58992,112.80162 L 174.94106,112.80162 L 173.46621,117.55162 L 171.99136,122.30162 L 136.79064,122.56441 L 101.58992,122.82721 L 101.58992,98.814421 z M 190.09604,98.820901 C 189.75028,97.731501 188.4026,94.244001 187.10121,91.070901 L 184.73503,85.301621 L 183.26693,88.801621 C 179.75802,97.167001 178.58992,100.06966 178.58992,100.42375 C 178.58992,100.63158 181.32024,100.80162 184.65731,100.80162 C 190.24994,100.80162 190.6755,100.64664 190.09604,98.820901 z M 226.58992,98.801621 L 226.58992,74.801621 L 251.58992,74.801621 L 276.58992,74.801621 L 276.58992,80.801621 L 276.58992,86.801621 L 263.08992,86.801621 L 249.58992,86.801621 L 249.58992,90.301621 L 249.58992,93.801621 L 262.58992,93.801621 L 275.58992,93.801621 L 275.58992,99.801621 L 275.58992,105.80162 L 262.58992,105.80162 L 249.58992,105.80162 L 249.58992,114.30162 L 249.58992,122.80162 L 238.08992,122.80162 L 226.58992,122.80162 L 226.58992,98.801621 z M 275.58992,122.49552 C 275.58992,122.29114 280.03039,111.58891 285.45764,98.712781 L 295.32536,75.301621 L 311.02357,75.301621 L 326.72179,75.301621 L 336.1635,97.288051 C 341.35645,109.38058 345.86173,120.08266 346.17524,121.07045 C 346.70485,122.73908 345.91593,122.84641 335.04962,122.58403 L 323.35398,122.30162 L 321.69579,117.80162 L 320.0376,113.30162 L 310.49988,113.01765 L 300.96215,112.73369 L 299.47831,117.51765 L 297.99446,122.30162 L 286.79219,122.58437 C 280.63094,122.73988 275.58992,122.6999 275.58992,122.49552 z M 316.09604,98.820901 C 315.75028,97.731501 314.4026,94.244001 313.10121,91.070901 L 310.73503,85.301621 L 309.26693,88.801621 C 305.75802,97.167001 304.58992,100.06966 304.58992,100.42375 C 304.58992,100.63158 307.32024,100.80162 310.65731,100.80162 C 316.24994,100.80162 316.6755,100.64664 316.09604,98.820901 z M 353.58992,98.723511 L 353.58992,74.645401 L 377.83992,74.973511 C 398.52906,75.253441 402.55418,75.555661 405.25162,77.031641 C 415.90374,82.860271 414.69585,95.278701 403.08992,99.256261 C 399.11491,100.61857 399.10703,100.63146 401.82913,101.32008 C 406.17638,102.41981 410.26144,107.90237 411.624,114.46577 C 412.28447,117.64725 413.04514,120.82433 413.31438,121.52595 C 413.69382,122.51476 411.20897,122.80162 402.2643,122.80162 C 389.4319,122.80162 390.36827,123.35859 389.0572,114.94585 C 388.16201,109.2017 385.66673,106.80162 380.58992,106.80162 L 376.58992,106.80162 L 376.58992,114.80162 L 376.58992,122.80162 L 365.08992,122.80162 L 353.58992,122.80162 L 353.58992,98.723511 z M 387.75905,94.551621 C 392.87798,90.427161 389.35245,85.801621 381.08992,85.801621 L 375.58992,85.801621 L 375.58992,90.801621 L 375.58992,95.801621 L 380.89879,95.801621 C 383.81867,95.801621 386.90579,95.239121 387.75905,94.551621 z M 492.58992,98.801621 L 492.58992,74.801621 L 517.58992,74.801621 L 542.58992,74.801621 L 542.58992,80.801621 L 542.58992,86.801621 L 528.58992,86.801621 L 514.58992,86.801621 L 514.58992,89.801621 L 514.58992,92.801621 L 528.08992,92.801621 L 541.58992,92.801621 L 541.58992,98.801621 L 541.58992,104.80162 L 528.08992,104.80162 L 514.58992,104.80162 L 514.58992,108.30162 L 514.58992,111.80162 L 529.08992,111.80162 L 543.58992,111.80162 L 543.58992,117.30162 L 543.58992,122.80162 L 518.08992,122.80162 L 492.58992,122.80162 L 492.58992,98.801621 z"
       id="path2410"
       sodipodi:nodetypes="csscccccssssscccccccccccccccccccccccscccccccccccccccssccccccccccccccccccccccccccccsccccccccccccccssccccsssssssccccccccccccccccccccccccccccccccccccccc" />
  </g>
</svg>
